<svg width="192" height="192" viewBox="0 0 192 192" fill="none" xmlns="http://www.w3.org/2000/svg">
  <rect width="192" height="192" rx="36" fill="#635BFF"/>
  <path d="M100.8 74.4c0-4.8-3-7.2-8.4-7.2-3.6 0-7.8 1.2-11.4 3v-12.6c4.2-1.8 8.4-2.4 12.6-2.4 12.6 0 20.4 6.6 20.4 18v33.6h-13.2v-3.6c-3 3-7.2 4.8-12 4.8-9 0-15.6-6-15.6-14.4 0-9 6.6-13.8 15.6-13.8 4.8 0 9 1.8 12 4.8v-10.2zm0 19.2c-2.4-2.4-5.4-3.6-9-3.6-4.2 0-7.2 1.8-7.2 5.4s3 5.4 7.2 5.4c3.6 0 6.6-1.2 9-3.6v-9.6z" fill="white"/>
  <path d="M127.2 68.4h13.2v3.6c3-3 7.2-4.8 12-4.8 9 0 15.6 6 15.6 14.4 0 9-6.6 13.8-15.6 13.8-4.8 0-9-1.8-12-4.8v18.6h-13.2v-40.8zm25.2 13.2c0-3.6-3-5.4-7.2-5.4-3.6 0-6.6 1.2-9 3.6v9.6c2.4 2.4 5.4 3.6 9 3.6 4.2 0 7.2-1.8 7.2-5.4z" fill="white"/>
  <circle cx="54" cy="87" r="12" fill="white"/>
</svg>