<svg width="16" height="16" viewBox="0 0 16 16" fill="none" xmlns="http://www.w3.org/2000/svg">
  <rect width="16" height="16" rx="3" fill="#635BFF"/>
  <path d="M8.4 6.2c0-.4-.25-.6-.7-.6-.3 0-.65.1-.95.25v-1.05c.35-.15.7-.2 1.05-.2 1.05 0 1.7.55 1.7 1.5v2.8h-1.1v-.3c-.25.25-.6.4-1 .4-.75 0-1.3-.5-1.3-1.2 0-.75.55-1.15 1.3-1.15.4 0 .75.15 1 .4v-.85zm0 1.6c-.2-.2-.45-.3-.75-.3-.35 0-.6.15-.6.45s.25.45.6.45c.3 0 .55-.1.75-.3v-.8z" fill="white"/>
  <path d="M10.6 5.7h1.1v.3c.25-.25.6-.4 1-.4.75 0 1.3.5 1.3 1.2 0 .75-.55 1.15-1.3 1.15-.4 0-.75-.15-1-.4v1.55h-1.1v-3.4zm2.1 1.1c0-.3-.25-.45-.6-.45-.3 0-.55.1-.75.3v.8c.2.2.45.3.75.3.35 0 .6-.15.6-.45z" fill="white"/>
  <circle cx="4.5" cy="7.25" r="1" fill="white"/>
</svg>